<mxfile host="app.diagrams.net" modified="2021-09-09T09:43:18.853Z" agent="5.0 (Windows NT 10.0; WOW64) AppleWebKit/537.36 (KHTML, like Gecko) Chrome/91.0.4472.114 Safari/537.36" etag="KuHbvsuNk0l8slYuKSCy" version="15.1.2" type="github">
  <diagram id="MBqKtfXBQmt_tBr0Ig7z" name="Page-1">
    <mxGraphModel dx="898" dy="490" grid="0" gridSize="10" guides="1" tooltips="1" connect="1" arrows="1" fold="1" page="1" pageScale="1" pageWidth="229" pageHeight="200" background="none" math="0" shadow="0">
      <root>
        <mxCell id="0" />
        <mxCell id="1" parent="0" />
        <mxCell id="CpxLMV91_ZyQbRdsgvgz-1" value="" style="shape=table;startSize=0;container=1;collapsible=0;childLayout=tableLayout;strokeColor=#CCCCCC;" parent="1" vertex="1">
          <mxGeometry x="5" y="4" width="220" height="193" as="geometry" />
        </mxCell>
        <mxCell id="CpxLMV91_ZyQbRdsgvgz-2" value="" style="shape=partialRectangle;collapsible=0;dropTarget=0;pointerEvents=0;fillColor=none;top=0;left=0;bottom=0;right=0;points=[[0,0.5],[1,0.5]];portConstraint=eastwest;" parent="CpxLMV91_ZyQbRdsgvgz-1" vertex="1">
          <mxGeometry width="220" height="47" as="geometry" />
        </mxCell>
        <mxCell id="CpxLMV91_ZyQbRdsgvgz-3" value="&lt;font style=&quot;font-size: 15px&quot; face=&quot;Times New Roman&quot;&gt;(c1, c1)&lt;/font&gt;" style="shape=partialRectangle;html=1;whiteSpace=wrap;connectable=0;overflow=hidden;fillColor=none;top=0;left=0;bottom=0;right=0;" parent="CpxLMV91_ZyQbRdsgvgz-2" vertex="1">
          <mxGeometry width="56" height="47" as="geometry" />
        </mxCell>
        <mxCell id="CpxLMV91_ZyQbRdsgvgz-4" value="&lt;font style=&quot;font-size: 15px&quot; face=&quot;Times New Roman&quot;&gt;(c1, c2)&lt;/font&gt;" style="shape=partialRectangle;html=1;whiteSpace=wrap;connectable=0;overflow=hidden;fillColor=none;top=0;left=0;bottom=0;right=0;" parent="CpxLMV91_ZyQbRdsgvgz-2" vertex="1">
          <mxGeometry x="56" width="57" height="47" as="geometry" />
        </mxCell>
        <mxCell id="CpxLMV91_ZyQbRdsgvgz-5" value="&lt;span&gt;&lt;font style=&quot;font-size: 15px&quot; face=&quot;Times New Roman&quot;&gt;(c1, c3)&lt;/font&gt;&lt;/span&gt;" style="shape=partialRectangle;html=1;whiteSpace=wrap;connectable=0;overflow=hidden;fillColor=none;top=0;left=0;bottom=0;right=0;" parent="CpxLMV91_ZyQbRdsgvgz-2" vertex="1">
          <mxGeometry x="113" width="55" height="47" as="geometry" />
        </mxCell>
        <mxCell id="CpxLMV91_ZyQbRdsgvgz-6" value="&lt;span&gt;&lt;font style=&quot;font-size: 15px&quot; face=&quot;Times New Roman&quot;&gt;(c1, c4)&lt;/font&gt;&lt;/span&gt;" style="shape=partialRectangle;html=1;whiteSpace=wrap;connectable=0;overflow=hidden;fillColor=none;top=0;left=0;bottom=0;right=0;" parent="CpxLMV91_ZyQbRdsgvgz-2" vertex="1">
          <mxGeometry x="168" width="52" height="47" as="geometry" />
        </mxCell>
        <mxCell id="CpxLMV91_ZyQbRdsgvgz-7" value="" style="shape=partialRectangle;collapsible=0;dropTarget=0;pointerEvents=0;fillColor=none;top=0;left=0;bottom=0;right=0;points=[[0,0.5],[1,0.5]];portConstraint=eastwest;" parent="CpxLMV91_ZyQbRdsgvgz-1" vertex="1">
          <mxGeometry y="47" width="220" height="50" as="geometry" />
        </mxCell>
        <mxCell id="CpxLMV91_ZyQbRdsgvgz-8" value="&lt;font style=&quot;font-size: 15px&quot; face=&quot;Times New Roman&quot;&gt;(c2, c1)&lt;/font&gt;" style="shape=partialRectangle;html=1;whiteSpace=wrap;connectable=0;overflow=hidden;fillColor=none;top=0;left=0;bottom=0;right=0;" parent="CpxLMV91_ZyQbRdsgvgz-7" vertex="1">
          <mxGeometry width="56" height="50" as="geometry" />
        </mxCell>
        <mxCell id="CpxLMV91_ZyQbRdsgvgz-9" value="&lt;font style=&quot;font-size: 15px&quot; face=&quot;Times New Roman&quot;&gt;(c2, c2)&lt;/font&gt;" style="shape=partialRectangle;html=1;whiteSpace=wrap;connectable=0;overflow=hidden;fillColor=none;top=0;left=0;bottom=0;right=0;" parent="CpxLMV91_ZyQbRdsgvgz-7" vertex="1">
          <mxGeometry x="56" width="57" height="50" as="geometry" />
        </mxCell>
        <mxCell id="CpxLMV91_ZyQbRdsgvgz-10" value="&lt;span style=&quot;font-size: 15px&quot;&gt;&lt;b&gt;&lt;font face=&quot;Times New Roman&quot;&gt;(&lt;font color=&quot;#82b366&quot; style=&quot;font-size: 15px&quot;&gt;c2&lt;/font&gt;, &lt;font color=&quot;#ff3333&quot; style=&quot;font-size: 15px&quot;&gt;c3&lt;/font&gt;)&lt;/font&gt;&lt;/b&gt;&lt;/span&gt;" style="shape=partialRectangle;html=1;whiteSpace=wrap;connectable=0;overflow=hidden;fillColor=none;top=0;left=0;bottom=0;right=0;" parent="CpxLMV91_ZyQbRdsgvgz-7" vertex="1">
          <mxGeometry x="113" width="55" height="50" as="geometry" />
        </mxCell>
        <mxCell id="CpxLMV91_ZyQbRdsgvgz-11" value="&lt;font style=&quot;font-size: 15px&quot; face=&quot;Times New Roman&quot;&gt;(c2, c4)&lt;/font&gt;" style="shape=partialRectangle;html=1;whiteSpace=wrap;connectable=0;overflow=hidden;fillColor=none;top=0;left=0;bottom=0;right=0;" parent="CpxLMV91_ZyQbRdsgvgz-7" vertex="1">
          <mxGeometry x="168" width="52" height="50" as="geometry" />
        </mxCell>
        <mxCell id="CpxLMV91_ZyQbRdsgvgz-12" value="" style="shape=partialRectangle;collapsible=0;dropTarget=0;pointerEvents=0;fillColor=none;top=0;left=0;bottom=0;right=0;points=[[0,0.5],[1,0.5]];portConstraint=eastwest;" parent="CpxLMV91_ZyQbRdsgvgz-1" vertex="1">
          <mxGeometry y="97" width="220" height="49" as="geometry" />
        </mxCell>
        <mxCell id="CpxLMV91_ZyQbRdsgvgz-13" value="&lt;font style=&quot;font-size: 15px&quot; face=&quot;Times New Roman&quot;&gt;(c3, c1)&lt;/font&gt;" style="shape=partialRectangle;html=1;whiteSpace=wrap;connectable=0;overflow=hidden;fillColor=none;top=0;left=0;bottom=0;right=0;" parent="CpxLMV91_ZyQbRdsgvgz-12" vertex="1">
          <mxGeometry width="56" height="49" as="geometry" />
        </mxCell>
        <mxCell id="CpxLMV91_ZyQbRdsgvgz-14" value="&lt;font style=&quot;font-size: 15px&quot; face=&quot;Times New Roman&quot;&gt;(c3, c2)&lt;/font&gt;" style="shape=partialRectangle;html=1;whiteSpace=wrap;connectable=0;overflow=hidden;fillColor=none;top=0;left=0;bottom=0;right=0;" parent="CpxLMV91_ZyQbRdsgvgz-12" vertex="1">
          <mxGeometry x="56" width="57" height="49" as="geometry" />
        </mxCell>
        <mxCell id="CpxLMV91_ZyQbRdsgvgz-15" value="&lt;font style=&quot;font-size: 15px&quot; face=&quot;Times New Roman&quot;&gt;(c3, c3)&lt;/font&gt;" style="shape=partialRectangle;html=1;whiteSpace=wrap;connectable=0;overflow=hidden;fillColor=none;top=0;left=0;bottom=0;right=0;" parent="CpxLMV91_ZyQbRdsgvgz-12" vertex="1">
          <mxGeometry x="113" width="55" height="49" as="geometry" />
        </mxCell>
        <mxCell id="CpxLMV91_ZyQbRdsgvgz-16" value="&lt;font style=&quot;font-size: 15px&quot; face=&quot;Times New Roman&quot;&gt;(c3, c3)&lt;/font&gt;" style="shape=partialRectangle;html=1;whiteSpace=wrap;connectable=0;overflow=hidden;fillColor=none;top=0;left=0;bottom=0;right=0;" parent="CpxLMV91_ZyQbRdsgvgz-12" vertex="1">
          <mxGeometry x="168" width="52" height="49" as="geometry" />
        </mxCell>
        <mxCell id="CpxLMV91_ZyQbRdsgvgz-17" value="" style="shape=partialRectangle;collapsible=0;dropTarget=0;pointerEvents=0;fillColor=none;top=0;left=0;bottom=0;right=0;points=[[0,0.5],[1,0.5]];portConstraint=eastwest;" parent="CpxLMV91_ZyQbRdsgvgz-1" vertex="1">
          <mxGeometry y="146" width="220" height="47" as="geometry" />
        </mxCell>
        <mxCell id="CpxLMV91_ZyQbRdsgvgz-18" value="&lt;font style=&quot;font-size: 15px&quot; face=&quot;Times New Roman&quot;&gt;(c4, c1)&lt;/font&gt;" style="shape=partialRectangle;html=1;whiteSpace=wrap;connectable=0;overflow=hidden;fillColor=none;top=0;left=0;bottom=0;right=0;" parent="CpxLMV91_ZyQbRdsgvgz-17" vertex="1">
          <mxGeometry width="56" height="47" as="geometry" />
        </mxCell>
        <mxCell id="CpxLMV91_ZyQbRdsgvgz-19" value="&lt;font style=&quot;font-size: 15px&quot; face=&quot;Times New Roman&quot;&gt;(c4, c2)&lt;/font&gt;" style="shape=partialRectangle;html=1;whiteSpace=wrap;connectable=0;overflow=hidden;fillColor=none;top=0;left=0;bottom=0;right=0;" parent="CpxLMV91_ZyQbRdsgvgz-17" vertex="1">
          <mxGeometry x="56" width="57" height="47" as="geometry" />
        </mxCell>
        <mxCell id="CpxLMV91_ZyQbRdsgvgz-20" value="&lt;font style=&quot;font-size: 15px&quot; face=&quot;Times New Roman&quot;&gt;(c4, c3)&lt;/font&gt;" style="shape=partialRectangle;html=1;whiteSpace=wrap;connectable=0;overflow=hidden;fillColor=none;top=0;left=0;bottom=0;right=0;" parent="CpxLMV91_ZyQbRdsgvgz-17" vertex="1">
          <mxGeometry x="113" width="55" height="47" as="geometry" />
        </mxCell>
        <mxCell id="CpxLMV91_ZyQbRdsgvgz-21" value="&lt;span style=&quot;font-size: 15px&quot;&gt;&lt;b&gt;&lt;font face=&quot;Times New Roman&quot;&gt;(&lt;font color=&quot;#82b366&quot; style=&quot;font-size: 15px&quot;&gt;c4&lt;/font&gt;, &lt;font color=&quot;#ff3333&quot; style=&quot;font-size: 15px&quot;&gt;c4&lt;/font&gt;)&lt;/font&gt;&lt;/b&gt;&lt;/span&gt;" style="shape=partialRectangle;html=1;whiteSpace=wrap;connectable=0;overflow=hidden;fillColor=none;top=0;left=0;bottom=0;right=0;" parent="CpxLMV91_ZyQbRdsgvgz-17" vertex="1">
          <mxGeometry x="168" width="52" height="47" as="geometry" />
        </mxCell>
        <mxCell id="CpxLMV91_ZyQbRdsgvgz-24" value="" style="endArrow=none;html=1;fillColor=#f8cecc;strokeColor=#FF3333;strokeWidth=2;" parent="1" edge="1">
          <mxGeometry width="50" height="50" relative="1" as="geometry">
            <mxPoint x="14" y="30" as="sourcePoint" />
            <mxPoint x="54" y="30" as="targetPoint" />
          </mxGeometry>
        </mxCell>
        <mxCell id="CpxLMV91_ZyQbRdsgvgz-25" value="" style="endArrow=none;html=1;fillColor=#f8cecc;strokeColor=#FF3333;strokeWidth=2;" parent="1" edge="1">
          <mxGeometry width="50" height="50" relative="1" as="geometry">
            <mxPoint x="71" y="30" as="sourcePoint" />
            <mxPoint x="111" y="30" as="targetPoint" />
          </mxGeometry>
        </mxCell>
        <mxCell id="CpxLMV91_ZyQbRdsgvgz-26" value="" style="endArrow=none;html=1;fillColor=#f8cecc;strokeColor=#FF3333;strokeWidth=2;" parent="1" edge="1">
          <mxGeometry width="50" height="50" relative="1" as="geometry">
            <mxPoint x="126" y="29" as="sourcePoint" />
            <mxPoint x="166" y="29" as="targetPoint" />
          </mxGeometry>
        </mxCell>
        <mxCell id="CpxLMV91_ZyQbRdsgvgz-27" value="" style="endArrow=none;html=1;fillColor=#f8cecc;strokeColor=#FF3333;strokeWidth=2;" parent="1" edge="1">
          <mxGeometry width="50" height="50" relative="1" as="geometry">
            <mxPoint x="179" y="29" as="sourcePoint" />
            <mxPoint x="219" y="29" as="targetPoint" />
          </mxGeometry>
        </mxCell>
        <mxCell id="CpxLMV91_ZyQbRdsgvgz-28" value="" style="endArrow=none;html=1;fillColor=#f8cecc;strokeColor=#FF3333;strokeWidth=2;" parent="1" edge="1">
          <mxGeometry width="50" height="50" relative="1" as="geometry">
            <mxPoint x="13" y="77" as="sourcePoint" />
            <mxPoint x="53" y="77" as="targetPoint" />
          </mxGeometry>
        </mxCell>
        <mxCell id="CpxLMV91_ZyQbRdsgvgz-29" value="" style="endArrow=none;html=1;fillColor=#f8cecc;strokeColor=#FF3333;strokeWidth=2;" parent="1" edge="1">
          <mxGeometry width="50" height="50" relative="1" as="geometry">
            <mxPoint x="70" y="77" as="sourcePoint" />
            <mxPoint x="110" y="77" as="targetPoint" />
          </mxGeometry>
        </mxCell>
        <mxCell id="CpxLMV91_ZyQbRdsgvgz-30" value="" style="endArrow=none;html=1;fillColor=#f8cecc;strokeColor=#FF3333;strokeWidth=2;" parent="1" edge="1">
          <mxGeometry width="50" height="50" relative="1" as="geometry">
            <mxPoint x="179" y="78" as="sourcePoint" />
            <mxPoint x="219" y="78" as="targetPoint" />
          </mxGeometry>
        </mxCell>
        <mxCell id="CpxLMV91_ZyQbRdsgvgz-31" value="" style="endArrow=none;html=1;fillColor=#f8cecc;strokeColor=#FF3333;strokeWidth=2;" parent="1" edge="1">
          <mxGeometry width="50" height="50" relative="1" as="geometry">
            <mxPoint x="13" y="128" as="sourcePoint" />
            <mxPoint x="53" y="128" as="targetPoint" />
          </mxGeometry>
        </mxCell>
        <mxCell id="CpxLMV91_ZyQbRdsgvgz-32" value="" style="endArrow=none;html=1;fillColor=#f8cecc;strokeColor=#FF3333;strokeWidth=2;" parent="1" edge="1">
          <mxGeometry width="50" height="50" relative="1" as="geometry">
            <mxPoint x="70" y="128" as="sourcePoint" />
            <mxPoint x="110" y="128" as="targetPoint" />
          </mxGeometry>
        </mxCell>
        <mxCell id="CpxLMV91_ZyQbRdsgvgz-33" value="" style="endArrow=none;html=1;fillColor=#f8cecc;strokeColor=#FF3333;strokeWidth=2;" parent="1" edge="1">
          <mxGeometry width="50" height="50" relative="1" as="geometry">
            <mxPoint x="126" y="128" as="sourcePoint" />
            <mxPoint x="166" y="128" as="targetPoint" />
          </mxGeometry>
        </mxCell>
        <mxCell id="CpxLMV91_ZyQbRdsgvgz-34" value="" style="endArrow=none;html=1;fillColor=#f8cecc;strokeColor=#FF3333;strokeWidth=2;" parent="1" edge="1">
          <mxGeometry width="50" height="50" relative="1" as="geometry">
            <mxPoint x="13" y="175" as="sourcePoint" />
            <mxPoint x="53" y="175" as="targetPoint" />
          </mxGeometry>
        </mxCell>
        <mxCell id="CpxLMV91_ZyQbRdsgvgz-35" value="" style="endArrow=none;html=1;fillColor=#f8cecc;strokeColor=#FF3333;strokeWidth=2;" parent="1" edge="1">
          <mxGeometry width="50" height="50" relative="1" as="geometry">
            <mxPoint x="179" y="127" as="sourcePoint" />
            <mxPoint x="219" y="127" as="targetPoint" />
          </mxGeometry>
        </mxCell>
        <mxCell id="CpxLMV91_ZyQbRdsgvgz-36" value="" style="endArrow=none;html=1;fillColor=#f8cecc;strokeColor=#FF3333;strokeWidth=2;" parent="1" edge="1">
          <mxGeometry width="50" height="50" relative="1" as="geometry">
            <mxPoint x="70" y="176" as="sourcePoint" />
            <mxPoint x="110" y="176" as="targetPoint" />
          </mxGeometry>
        </mxCell>
        <mxCell id="CpxLMV91_ZyQbRdsgvgz-37" value="" style="endArrow=none;html=1;fillColor=#f8cecc;strokeColor=#FF3333;strokeWidth=2;" parent="1" edge="1">
          <mxGeometry width="50" height="50" relative="1" as="geometry">
            <mxPoint x="126" y="175" as="sourcePoint" />
            <mxPoint x="166" y="175" as="targetPoint" />
          </mxGeometry>
        </mxCell>
      </root>
    </mxGraphModel>
  </diagram>
</mxfile>
